<svg width="16" height="16" viewBox="0 0 16 16" fill="none" xmlns="http://www.w3.org/2000/svg">
<path d="M13 12L11.5 15L10 12H13Z" fill="#5FFF97"/>
<path d="M16 15L14.5 12L13 15H16Z" fill="#FF5F5F"/>
<path d="M7 1V4C7.65591 3.83064 8.34409 3.83064 9 4V1H7ZM8 5C7.20435 5 6.44129 5.31607 5.87868 5.87868C5.31607 6.44129 5 7.20435 5 8C5 8.79565 5.31607 9.55871 5.87868 10.1213C6.44129 10.6839 7.20435 11 8 11C8.79565 11 9.55871 10.6839 10.1213 10.1213C10.6839 9.55871 11 8.79565 11 8C11 7.20435 10.6839 6.44129 10.1213 5.87868C9.55871 5.31607 8.79565 5 8 5ZM1 7V9H3.87C3.70064 8.34409 3.70064 7.65591 3.87 7H1ZM12 7C12.1694 7.65591 12.1694 8.34409 12 9H15V7H12ZM7 15H9V12C8.34409 12.1694 7.65591 12.1694 7 12V15Z" fill="#FC7F7F"/>
</svg>
